<svg width="1245" height="988" viewBox="0 0 1245 988" fill="none" xmlns="http://www.w3.org/2000/svg">
<rect width="1245" height="988" fill="#F2F2F2"/>
<g filter="url(#filter0_d_4_14)">
<rect x="163" y="342" width="256" height="256" rx="16" fill="#404040"/>
<path d="M335.965 470.754C333.563 470.298 332.129 467.814 332.935 465.506L340.942 442.573C341.258 441.668 341.889 440.907 342.719 440.428L373.412 422.707C375.325 421.603 377.771 422.258 378.876 424.171L394.732 451.635C395.837 453.549 395.181 455.995 393.268 457.099L362.575 474.82C361.745 475.299 360.77 475.465 359.829 475.286L335.965 470.754Z" fill="#FF0000"/>
<circle cx="348.296" cy="460.667" r="5.20365" transform="rotate(-75 348.296 460.667)" fill="#404040"/>
<g filter="url(#filter1_d_4_14)">
<path d="M220.375 493.874C213.711 493.874 208.472 492.068 204.658 488.456C200.886 484.844 199 479.74 199 473.146C199 468.568 199.88 464.599 201.64 461.239C203.443 457.836 205.957 455.19 209.185 453.3C212.454 451.41 216.247 450.465 220.564 450.465C222.366 450.465 224.106 450.633 225.782 450.969C227.459 451.305 229.072 451.767 230.623 452.355L228.926 460.483C227.542 459.853 226.159 459.37 224.776 459.034C223.393 458.697 222.01 458.529 220.627 458.529C216.771 458.529 213.732 459.79 211.511 462.31C209.331 464.83 208.242 468.148 208.242 472.264C208.242 476.506 209.415 479.803 211.762 482.155C214.109 484.508 217.358 485.684 221.507 485.684C222.764 485.684 224.064 485.579 225.405 485.369C226.788 485.117 228.129 484.781 229.428 484.361L230.812 492.11C227.752 493.286 224.273 493.874 220.375 493.874Z" fill="#F5F5F5"/>
<path d="M232.598 493.055V447.063H241.463V465.334C242.804 463.36 244.313 461.932 245.989 461.05C247.666 460.168 249.573 459.727 251.71 459.727C255.189 459.727 257.913 460.777 259.883 462.877C261.853 464.935 262.838 467.812 262.838 471.508V493.055H253.973V472.894C253.973 471.172 253.554 469.849 252.716 468.925C251.878 468.001 250.746 467.539 249.321 467.539C247.728 467.539 246.22 468.085 244.795 469.177C243.412 470.269 242.301 471.676 241.463 473.398V493.055H232.598Z" fill="#F5F5F5"/>
<path d="M275.16 494C271.849 494 269.187 492.593 267.176 489.779C265.206 486.923 264.221 483.017 264.221 478.06C264.221 472.096 265.73 467.56 268.747 464.452C271.765 461.302 276.103 459.727 281.761 459.727C284.946 459.727 288.677 460.231 292.952 461.239V493.055H284.527L284.716 487.889H284.464C282.285 491.963 279.183 494 275.16 494ZM277.046 486.251C278.429 486.251 279.749 485.516 281.007 484.046C282.264 482.576 283.396 480.769 284.402 478.627V468.043C283.731 467.833 283.039 467.686 282.327 467.602C281.614 467.518 280.965 467.476 280.378 467.476C275.307 467.476 272.771 470.878 272.771 477.682C272.771 480.328 273.148 482.429 273.903 483.983C274.657 485.495 275.705 486.251 277.046 486.251Z" fill="#F5F5F5"/>
<path d="M310.944 494C305.579 494 301.409 492.572 298.433 489.716C295.499 486.86 294.032 482.828 294.032 477.619C294.032 474.049 294.724 470.92 296.107 468.232C297.49 465.544 299.439 463.465 301.954 461.995C304.469 460.483 307.382 459.727 310.693 459.727C312.285 459.727 313.92 459.916 315.596 460.294C317.273 460.63 318.572 461.029 319.494 461.491L317.797 468.988C316.833 468.526 315.764 468.169 314.591 467.917C313.417 467.623 312.348 467.476 311.384 467.476C308.828 467.476 306.753 468.358 305.16 470.122C303.568 471.886 302.771 474.217 302.771 477.115C302.771 480.055 303.588 482.324 305.223 483.92C306.858 485.516 309.142 486.314 312.076 486.314C314.046 486.314 316.162 485.936 318.425 485.18L319.746 492.362C318.321 492.908 316.875 493.307 315.408 493.559C313.983 493.853 312.495 494 310.944 494Z" fill="#F5F5F5"/>
<path d="M340.438 494L329.688 478.942V493.055H320.823V447H329.688V472.453L339.809 460.609H350.308L337.357 475.162L351 492.677L340.438 494Z" fill="#F5F5F5"/>
</g>
<rect x="495" y="342" width="256" height="256" rx="56" fill="#404040"/>
<path d="M667.965 470.754C665.563 470.298 664.129 467.814 664.935 465.506L672.942 442.573C673.258 441.668 673.889 440.907 674.719 440.428L705.412 422.707C707.325 421.603 709.771 422.258 710.876 424.171L726.732 451.635C727.837 453.549 727.181 455.995 725.268 457.099L694.575 474.82C693.745 475.299 692.77 475.465 691.829 475.286L667.965 470.754Z" fill="#FF0000"/>
<circle cx="680.296" cy="460.667" r="5.20365" transform="rotate(-75 680.296 460.667)" fill="#404040"/>
<g filter="url(#filter2_d_4_14)">
<path d="M552.375 493.874C545.711 493.874 540.472 492.068 536.658 488.456C532.886 484.844 531 479.74 531 473.146C531 468.568 531.88 464.599 533.64 461.239C535.443 457.836 537.957 455.19 541.185 453.3C544.454 451.41 548.247 450.465 552.564 450.465C554.366 450.465 556.106 450.633 557.782 450.969C559.459 451.305 561.072 451.767 562.623 452.355L560.926 460.483C559.542 459.853 558.159 459.37 556.776 459.034C555.393 458.697 554.01 458.529 552.627 458.529C548.771 458.529 545.732 459.79 543.511 462.31C541.331 464.83 540.242 468.148 540.242 472.264C540.242 476.506 541.415 479.803 543.762 482.155C546.109 484.508 549.358 485.684 553.507 485.684C554.764 485.684 556.064 485.579 557.405 485.369C558.788 485.117 560.129 484.781 561.428 484.361L562.812 492.11C559.752 493.286 556.273 493.874 552.375 493.874Z" fill="#F5F5F5"/>
<path d="M564.598 493.055V447.063H573.463V465.334C574.804 463.36 576.313 461.932 577.989 461.05C579.666 460.168 581.573 459.727 583.71 459.727C587.189 459.727 589.913 460.777 591.883 462.877C593.853 464.935 594.838 467.812 594.838 471.508V493.055H585.973V472.894C585.973 471.172 585.554 469.849 584.716 468.925C583.878 468.001 582.746 467.539 581.321 467.539C579.728 467.539 578.22 468.085 576.795 469.177C575.412 470.269 574.301 471.676 573.463 473.398V493.055H564.598Z" fill="#F5F5F5"/>
<path d="M607.16 494C603.849 494 601.187 492.593 599.176 489.779C597.206 486.923 596.221 483.017 596.221 478.06C596.221 472.096 597.73 467.56 600.747 464.452C603.765 461.302 608.103 459.727 613.761 459.727C616.946 459.727 620.677 460.231 624.952 461.239V493.055H616.527L616.716 487.889H616.464C614.285 491.963 611.183 494 607.16 494ZM609.046 486.251C610.429 486.251 611.749 485.516 613.007 484.046C614.264 482.576 615.396 480.769 616.402 478.627V468.043C615.731 467.833 615.039 467.686 614.327 467.602C613.614 467.518 612.965 467.476 612.378 467.476C607.307 467.476 604.771 470.878 604.771 477.682C604.771 480.328 605.148 482.429 605.903 483.983C606.657 485.495 607.705 486.251 609.046 486.251Z" fill="#F5F5F5"/>
<path d="M642.944 494C637.579 494 633.409 492.572 630.433 489.716C627.499 486.86 626.032 482.828 626.032 477.619C626.032 474.049 626.724 470.92 628.107 468.232C629.49 465.544 631.439 463.465 633.954 461.995C636.469 460.483 639.382 459.727 642.693 459.727C644.285 459.727 645.92 459.916 647.596 460.294C649.273 460.63 650.572 461.029 651.494 461.491L649.797 468.988C648.833 468.526 647.764 468.169 646.591 467.917C645.417 467.623 644.348 467.476 643.384 467.476C640.828 467.476 638.753 468.358 637.16 470.122C635.568 471.886 634.771 474.217 634.771 477.115C634.771 480.055 635.588 482.324 637.223 483.92C638.858 485.516 641.142 486.314 644.076 486.314C646.046 486.314 648.162 485.936 650.425 485.18L651.746 492.362C650.321 492.908 648.875 493.307 647.408 493.559C645.983 493.853 644.495 494 642.944 494Z" fill="#F5F5F5"/>
<path d="M672.438 494L661.688 478.942V493.055H652.823V447H661.688V472.453L671.809 460.609H682.308L669.357 475.162L683 492.677L672.438 494Z" fill="#F5F5F5"/>
</g>
<rect x="827" y="342" width="256" height="256" rx="128" fill="#404040"/>
<path d="M999.965 470.754C997.563 470.298 996.129 467.814 996.935 465.506L1004.94 442.573C1005.26 441.668 1005.89 440.907 1006.72 440.428L1037.41 422.707C1039.32 421.603 1041.77 422.258 1042.88 424.171L1058.73 451.635C1059.84 453.549 1059.18 455.995 1057.27 457.099L1026.57 474.82C1025.74 475.299 1024.77 475.465 1023.83 475.286L999.965 470.754Z" fill="#FF0000"/>
<circle cx="1012.3" cy="460.667" r="5.20365" transform="rotate(-75 1012.3 460.667)" fill="#404040"/>
<g filter="url(#filter3_d_4_14)">
<path d="M884.375 493.874C877.711 493.874 872.472 492.068 868.658 488.456C864.886 484.844 863 479.74 863 473.146C863 468.568 863.88 464.599 865.64 461.239C867.443 457.836 869.957 455.19 873.185 453.3C876.454 451.41 880.247 450.465 884.564 450.465C886.366 450.465 888.106 450.633 889.782 450.969C891.459 451.305 893.072 451.767 894.623 452.355L892.926 460.483C891.542 459.853 890.159 459.37 888.776 459.034C887.393 458.697 886.01 458.529 884.627 458.529C880.771 458.529 877.732 459.79 875.511 462.31C873.331 464.83 872.242 468.148 872.242 472.264C872.242 476.506 873.415 479.803 875.762 482.155C878.109 484.508 881.358 485.684 885.507 485.684C886.764 485.684 888.064 485.579 889.405 485.369C890.788 485.117 892.129 484.781 893.428 484.361L894.812 492.11C891.752 493.286 888.273 493.874 884.375 493.874Z" fill="#F5F5F5"/>
<path d="M896.598 493.055V447.063H905.463V465.334C906.804 463.36 908.313 461.932 909.989 461.05C911.666 460.168 913.573 459.727 915.71 459.727C919.189 459.727 921.913 460.777 923.883 462.877C925.853 464.935 926.838 467.812 926.838 471.508V493.055H917.973V472.894C917.973 471.172 917.554 469.849 916.716 468.925C915.878 468.001 914.746 467.539 913.321 467.539C911.728 467.539 910.22 468.085 908.795 469.177C907.412 470.269 906.301 471.676 905.463 473.398V493.055H896.598Z" fill="#F5F5F5"/>
<path d="M939.16 494C935.849 494 933.187 492.593 931.176 489.779C929.206 486.923 928.221 483.017 928.221 478.06C928.221 472.096 929.73 467.56 932.747 464.452C935.765 461.302 940.103 459.727 945.761 459.727C948.946 459.727 952.677 460.231 956.952 461.239V493.055H948.527L948.716 487.889H948.464C946.285 491.963 943.183 494 939.16 494ZM941.046 486.251C942.429 486.251 943.749 485.516 945.007 484.046C946.264 482.576 947.396 480.769 948.402 478.627V468.043C947.731 467.833 947.039 467.686 946.327 467.602C945.614 467.518 944.965 467.476 944.378 467.476C939.307 467.476 936.771 470.878 936.771 477.682C936.771 480.328 937.148 482.429 937.903 483.983C938.657 485.495 939.705 486.251 941.046 486.251Z" fill="#F5F5F5"/>
<path d="M974.944 494C969.579 494 965.409 492.572 962.433 489.716C959.499 486.86 958.032 482.828 958.032 477.619C958.032 474.049 958.724 470.92 960.107 468.232C961.49 465.544 963.439 463.465 965.954 461.995C968.469 460.483 971.382 459.727 974.693 459.727C976.285 459.727 977.92 459.916 979.596 460.294C981.273 460.63 982.572 461.029 983.494 461.491L981.797 468.988C980.833 468.526 979.764 468.169 978.591 467.917C977.417 467.623 976.348 467.476 975.384 467.476C972.828 467.476 970.753 468.358 969.16 470.122C967.568 471.886 966.771 474.217 966.771 477.115C966.771 480.055 967.588 482.324 969.223 483.92C970.858 485.516 973.142 486.314 976.076 486.314C978.046 486.314 980.162 485.936 982.425 485.18L983.746 492.362C982.321 492.908 980.875 493.307 979.408 493.559C977.983 493.853 976.495 494 974.944 494Z" fill="#F5F5F5"/>
<path d="M1004.44 494L993.688 478.942V493.055H984.823V447H993.688V472.453L1003.81 460.609H1014.31L1001.36 475.162L1015 492.677L1004.44 494Z" fill="#F5F5F5"/>
</g>
</g>
<defs>
<filter id="filter0_d_4_14" x="107" y="314" width="1032" height="368" filterUnits="userSpaceOnUse" color-interpolation-filters="sRGB">
<feFlood flood-opacity="0" result="BackgroundImageFix"/>
<feColorMatrix in="SourceAlpha" type="matrix" values="0 0 0 0 0 0 0 0 0 0 0 0 0 0 0 0 0 0 127 0" result="hardAlpha"/>
<feOffset dy="28"/>
<feGaussianBlur stdDeviation="28"/>
<feColorMatrix type="matrix" values="0 0 0 0 0 0 0 0 0 0 0 0 0 0 0 0 0 0 0.15 0"/>
<feBlend mode="normal" in2="BackgroundImageFix" result="effect1_dropShadow_4_14"/>
<feBlend mode="normal" in="SourceGraphic" in2="effect1_dropShadow_4_14" result="shape"/>
</filter>
<filter id="filter1_d_4_14" x="195" y="447" width="160" height="55" filterUnits="userSpaceOnUse" color-interpolation-filters="sRGB">
<feFlood flood-opacity="0" result="BackgroundImageFix"/>
<feColorMatrix in="SourceAlpha" type="matrix" values="0 0 0 0 0 0 0 0 0 0 0 0 0 0 0 0 0 0 127 0" result="hardAlpha"/>
<feOffset dy="4"/>
<feGaussianBlur stdDeviation="2"/>
<feComposite in2="hardAlpha" operator="out"/>
<feColorMatrix type="matrix" values="0 0 0 0 0 0 0 0 0 0 0 0 0 0 0 0 0 0 0.25 0"/>
<feBlend mode="normal" in2="BackgroundImageFix" result="effect1_dropShadow_4_14"/>
<feBlend mode="normal" in="SourceGraphic" in2="effect1_dropShadow_4_14" result="shape"/>
</filter>
<filter id="filter2_d_4_14" x="527" y="447" width="160" height="55" filterUnits="userSpaceOnUse" color-interpolation-filters="sRGB">
<feFlood flood-opacity="0" result="BackgroundImageFix"/>
<feColorMatrix in="SourceAlpha" type="matrix" values="0 0 0 0 0 0 0 0 0 0 0 0 0 0 0 0 0 0 127 0" result="hardAlpha"/>
<feOffset dy="4"/>
<feGaussianBlur stdDeviation="2"/>
<feComposite in2="hardAlpha" operator="out"/>
<feColorMatrix type="matrix" values="0 0 0 0 0 0 0 0 0 0 0 0 0 0 0 0 0 0 0.25 0"/>
<feBlend mode="normal" in2="BackgroundImageFix" result="effect1_dropShadow_4_14"/>
<feBlend mode="normal" in="SourceGraphic" in2="effect1_dropShadow_4_14" result="shape"/>
</filter>
<filter id="filter3_d_4_14" x="859" y="447" width="160" height="55" filterUnits="userSpaceOnUse" color-interpolation-filters="sRGB">
<feFlood flood-opacity="0" result="BackgroundImageFix"/>
<feColorMatrix in="SourceAlpha" type="matrix" values="0 0 0 0 0 0 0 0 0 0 0 0 0 0 0 0 0 0 127 0" result="hardAlpha"/>
<feOffset dy="4"/>
<feGaussianBlur stdDeviation="2"/>
<feComposite in2="hardAlpha" operator="out"/>
<feColorMatrix type="matrix" values="0 0 0 0 0 0 0 0 0 0 0 0 0 0 0 0 0 0 0.25 0"/>
<feBlend mode="normal" in2="BackgroundImageFix" result="effect1_dropShadow_4_14"/>
<feBlend mode="normal" in="SourceGraphic" in2="effect1_dropShadow_4_14" result="shape"/>
</filter>
</defs>
</svg>
