<svg width="395" height="512" viewBox="0 0 395 512" fill="none" xmlns="http://www.w3.org/2000/svg">
<path d="M255.8 191L377 121V377C377 383.933 375.267 391.4 371.8 399.4C368.6 407.4 364.333 414.867 359 421.8C353.933 428.467 348.333 433.533 342.2 437L255.8 487C246.467 492.333 238.333 493 231.4 489C224.467 485 221 477.667 221 467V371L255.8 351V447L342.2 397V141C342.2 147.933 340.6 155.4 337.4 163.4C334.2 171.4 329.933 178.867 324.6 185.8C319.267 192.467 313.533 197.533 307.4 201L255.8 231V191ZM342.2 141V397L307.4 377V121L342.2 141ZM342.2 397L255.8 447L221 427L307.4 377L342.2 397ZM377 121L255.8 191L221 171L342.2 101L377 121ZM255.8 191V231L221 211V171L255.8 191ZM255.8 351L221 371L186.2 351L221 331L255.8 351ZM221 371V467C221 477.667 224.467 485 231.4 489L196.6 469C189.667 465 186.2 457.667 186.2 447V351L221 371Z" fill="white"/>
<path d="M86.8 122V242L173.2 192V72L208 52V332L173.2 352V232L86.8 282V402L52 422V142L86.8 122ZM173.2 232V352L138.4 332V212L173.2 232ZM208 52L173.2 72L138.4 52L173.2 32L208 52ZM173.2 72V192L138.4 172V52L173.2 72ZM173.2 192L86.8 242L52 222L138.4 172L173.2 192ZM86.8 122L52 142L17.2 122L52 102L86.8 122ZM52 142V422L17.2 402V122L52 142Z" fill="white"/>
</svg>
